# xmcd
#
# Track frame offsets: 
#        150
#        18875
#        33984
#        52524
#        68056
#
# Disc length: 1084 seconds
#
# Revision: 0
# Processed by: cddbd v1.5.2PL0 Copyright (c) Steve Scherf et al.
# Submitted via: ExactAudioCopy v1.0b1
#
DISCID=2d043a05
DTITLE=The Growl - Cleaver Lever
DYEAR=2011
DGENRE=Rock
TTITLE0=With The Sharp End of a Trowel
TTITLE1=Smoke It Down
TTITLE2=Water Don't Burn
TTITLE3=Spice Trader Blues
TTITLE4=3, 6 ,9
EXTD=
EXTT0=
EXTT1=
EXTT2=
EXTT3=
EXTT4=
PLAYORDER=
